<svg width="20" height="20" viewBox="0 0 20 20" fill="none" xmlns="http://www.w3.org/2000/svg">
<g clip-path="url(#clip0_278_2712)">
<path d="M9.16667 11.6667C8.94566 11.6667 8.73369 11.5789 8.57741 11.4226C8.42113 11.2663 8.33334 11.0543 8.33334 10.8333V1.66667C8.33334 1.22464 8.50893 0.800716 8.82149 0.488155C9.13405 0.175595 9.55798 0 10 0L18.3333 0C18.7754 0 19.1993 0.175595 19.5118 0.488155C19.8244 0.800716 20 1.22464 20 1.66667V7.5C20 7.94203 19.8244 8.36595 19.5118 8.67851C19.1993 8.99107 18.7754 9.16667 18.3333 9.16667H12.7775L9.66667 11.5C9.52242 11.6082 9.34698 11.6667 9.16667 11.6667Z" fill="white"/>
<path d="M13.3333 10.8332V16.6665C13.3333 16.8875 13.2455 17.0995 13.0893 17.2558C12.933 17.412 12.721 17.4998 12.5 17.4998H4.16667C3.94565 17.4998 3.73369 17.412 3.57741 17.2558C3.42113 17.0995 3.33333 16.8875 3.33333 16.6665V4.99984C3.33333 4.77882 3.42113 4.56686 3.57741 4.41058C3.73369 4.2543 3.94565 4.1665 4.16667 4.1665H6.66667V1.6665H4.16667C3.50363 1.6665 2.86774 1.9299 2.3989 2.39874C1.93006 2.86758 1.66667 3.50346 1.66667 4.1665V17.4998C1.66667 18.1629 1.93006 18.7988 2.3989 19.2676C2.86774 19.7364 3.50363 19.9998 4.16667 19.9998H12.5C13.163 19.9998 13.7989 19.7364 14.2678 19.2676C14.7366 18.7988 15 18.1629 15 17.4998V10.8332H13.3333Z" fill="white"/>
</g>
<defs>
<clipPath id="clip0_278_2712">
<rect width="20" height="20" fill="white"/>
</clipPath>
</defs>
</svg>
