<svg width="20" height="18" viewBox="0 0 20 18" fill="none" xmlns="http://www.w3.org/2000/svg">
<path d="M11.1667 11.1665C10.8241 11.401 10.4147 11.518 10 11.4998C9.58527 11.518 9.17586 11.401 8.83333 11.1665L0 6.4165V14.8332C0 15.4962 0.263392 16.1321 0.732233 16.6009C1.20107 17.0698 1.83696 17.3332 2.5 17.3332H17.5C18.163 17.3332 18.7989 17.0698 19.2678 16.6009C19.7366 16.1321 20 15.4962 20 14.8332V6.4165L11.1667 11.1665Z" fill="white"/>
<path d="M17.5 0.666504H2.5C1.83696 0.666504 1.20107 0.929896 0.73223 1.39874C0.263389 1.86758 -2.97179e-06 2.50346 -2.97179e-06 3.1665V3.99984C-0.000799234 4.15011 0.0371185 4.29805 0.110097 4.42941C0.183076 4.56077 0.288655 4.67113 0.416664 4.74984L9.58333 9.74984C9.71128 9.8172 9.85598 9.84614 10 9.83317C10.144 9.84614 10.2887 9.8172 10.4167 9.74984L19.5833 4.74984C19.7113 4.67113 19.8169 4.56077 19.8899 4.42941C19.9629 4.29805 20.0008 4.15011 20 3.99984V3.1665C20 2.50346 19.7366 1.86758 19.2678 1.39874C18.7989 0.929896 18.163 0.666504 17.5 0.666504Z" fill="white"/>
</svg>
