<svg width="20" height="20" viewBox="0 0 20 20" fill="none" xmlns="http://www.w3.org/2000/svg">
<path d="M16.804 5.05664C16.8027 5.06488 16.8024 5.06677 16.8002 5.08149C16.8002 5.08149 16.802 5.06951 16.804 5.05664Z" fill="white"/>
<path d="M16.804 5.05639C16.8073 5.0337 16.8097 5.0182 16.804 5.05639V5.05639Z" fill="white"/>
<path d="M15.9571 1.50805C15.031 0.452533 13.357 0 11.2155 0H5.00005C4.56191 0 4.18957 0.31865 4.12099 0.750717L1.53301 17.1642C1.48158 17.4878 1.73219 17.781 2.06022 17.781H5.89737L6.86108 11.6685L6.8312 11.8599C6.89981 11.4279 7.26934 11.1092 7.70695 11.1092H9.53037C13.1125 11.1092 15.9173 9.65423 16.7366 5.44532C16.7609 5.32086 16.8002 5.08132 16.8002 5.08132C17.0326 3.52388 16.7986 2.4668 15.9571 1.50805Z" fill="white"/>
<path d="M17.7715 5.87842C16.8805 10.0222 14.0387 12.2155 9.53042 12.2155H7.89507L6.67558 20.0001H9.32799C9.71082 20.0001 10.0367 19.7212 10.0964 19.3434L10.1279 19.1785L10.7376 15.3148L10.7769 15.1013C10.8366 14.7234 11.1624 14.4446 11.5453 14.4446H12.0293C15.1628 14.4446 17.6163 13.1717 18.3333 9.48999C18.6206 8.01296 18.4829 6.77376 17.7715 5.87842Z" fill="white"/>
</svg>
