<svg width="16" height="16" viewBox="0 0 16 16" fill="none" xmlns="http://www.w3.org/2000/svg">
<path d="M8.47338 0.19994C8.34564 0.0786253 8.1762 0.0109863 8.00004 0.0109863C7.82388 0.0109863 7.65444 0.0786253 7.52671 0.19994C7.30138 0.424606 2.00004 5.80727 2.00004 9.33327C1.99229 10.1234 2.14219 10.9071 2.44098 11.6385C2.73976 12.37 3.18143 13.0345 3.74013 13.5932C4.29883 14.1519 4.96335 14.5936 5.6948 14.8923C6.42626 15.1911 7.20996 15.341 8.00004 15.3333C8.79013 15.341 9.57383 15.1911 10.3053 14.8923C11.0367 14.5936 11.7013 14.1519 12.26 13.5932C12.8187 13.0345 13.2603 12.37 13.5591 11.6385C13.8579 10.9071 14.0078 10.1234 14 9.33327C14 5.80727 8.69871 0.424606 8.47338 0.19994ZM8.66671 11.9999H8.00004C7.64823 12.0058 7.29884 11.9408 6.97266 11.8089C6.64648 11.677 6.35017 11.4807 6.10137 11.2319C5.85257 10.9831 5.65636 10.6868 5.52442 10.3607C5.39249 10.0345 5.32751 9.68508 5.33337 9.33327V8.66661H6.66671V9.33327C6.66671 9.6869 6.80718 10.026 7.05723 10.2761C7.30728 10.5261 7.64642 10.6666 8.00004 10.6666H8.66671V11.9999Z" fill="white"/>
</svg>
